<svg width="120" height="109" viewBox="0 0 120 109" fill="none" xmlns="http://www.w3.org/2000/svg">
<g id="Bar Group 03">
<path id="Icon" d="M74.7176 95.796V15.004C74.7176 14.4517 74.2699 14.004 73.7176 14.004H45.4264C44.8741 14.004 44.4264 14.4517 44.4264 15.004V95.796M74.7176 95.796L74.7089 45.8562C74.7088 45.3038 75.1566 44.856 75.7089 44.856H104C104.552 44.856 105 45.3037 105 45.856V94.796C105 95.3483 104.552 95.796 104 95.796H74.7176ZM74.7176 95.796H44.4264M44.4264 95.796V69.796C44.4264 69.2437 43.9787 68.796 43.4264 68.796H16C15.4477 68.796 15 69.2437 15 69.796V94.796C15 95.3483 15.4477 95.796 16 95.796H44.4264Z" stroke="#999798" stroke-opacity="0.9" stroke-width="2" stroke-linecap="round" stroke-linejoin="round"/>
</g>
</svg>
