<svg width="48" height="48" viewBox="0 0 48 48" fill="none" xmlns="http://www.w3.org/2000/svg">
<g id="Database Setting" clip-path="url(#clip0_68_166)">
<path id="icon" fill-rule="evenodd" clip-rule="evenodd" d="M0.435895 6.34262C0.435895 5.96126 0.623119 5.37312 1.44477 4.60659C2.26971 3.83705 3.58001 3.04536 5.37833 2.33579C8.96225 0.921669 14.0597 0 19.7985 0C25.5373 0 30.6347 0.921669 34.2187 2.33579C36.0171 3.04536 37.3272 3.83705 38.1521 4.60659C38.9739 5.37312 39.1611 5.96126 39.1611 6.34262C39.1611 6.72401 38.9739 7.31215 38.1521 8.07867C37.3272 8.84822 36.0171 9.63991 34.2187 10.3495C30.6347 11.7636 25.5373 12.6853 19.7985 12.6853C14.0597 12.6853 8.96225 11.7636 5.37833 10.3495C3.58001 9.63991 2.26971 8.84822 1.44477 8.07867C0.623119 7.31215 0.435895 6.72401 0.435895 6.34262ZM39.5976 12.3807C38.4909 13.1304 37.1986 13.7809 35.7915 14.3361C31.5921 15.9931 25.9369 16.971 19.7985 16.971C13.6601 16.971 8.00489 15.9931 3.80534 14.3361C2.39842 13.7809 1.10638 13.1306 0 12.3811V21.2419C0.134744 21.5607 0.404091 21.9544 0.911681 22.416C1.76337 23.1904 3.11529 23.9862 4.96749 24.6988C8.63931 26.1113 13.8487 27.033 19.7113 27.0421C19.8629 26.4967 20.0851 25.9613 20.3811 25.4483C22.1436 22.3933 25.9017 21.2077 29.0594 22.5879C29.4418 19.1629 32.3469 16.5 35.8738 16.5C37.2466 16.5 38.5251 16.9034 39.5976 17.5981V12.3807ZM19.7987 31.3279L19.9169 31.3277C20.3734 32.5216 21.1644 33.5949 22.2485 34.393C19.8713 36.1426 18.9033 39.216 19.7822 41.9818C8.8548 41.9777 0 38.1778 0 33.4962V27.0432C1.02295 27.668 2.18146 28.2189 3.42871 28.6987C7.72347 30.3509 13.5117 31.3279 19.7987 31.3279ZM38.4456 23.3571C38.4456 21.937 37.2943 20.7857 35.8742 20.7857C34.4537 20.7857 33.3026 21.937 33.3026 23.3571V25.8936C31.9793 26.2935 30.7865 26.994 29.8036 27.9157L27.6057 26.6477C26.3756 25.938 24.8031 26.3599 24.0934 27.59C23.3837 28.8201 23.8056 30.3926 25.0357 31.1023L27.2291 32.3677C27.0773 33.0182 26.9971 33.6962 26.9971 34.393C26.9971 35.0897 27.0773 35.7675 27.2291 36.4179L25.0357 37.6834C23.8056 38.3931 23.3837 39.9655 24.0934 41.1957C24.8031 42.4258 26.3756 42.8479 27.6057 42.1382L29.8036 40.8699C30.7865 41.7919 31.9793 42.4923 33.3026 42.8921V45.4286C33.3026 46.8487 34.4537 48 35.8742 48C37.2943 48 38.4456 46.8487 38.4456 45.4286V42.8925C39.769 42.4927 40.9622 41.7922 41.9455 40.8703L44.1432 42.1382C45.3734 42.8479 46.9457 42.4258 47.6554 41.1957C48.3651 39.9655 47.9431 38.3931 46.7133 37.6834L44.52 36.4183C44.6719 35.7675 44.7521 35.0897 44.7521 34.393C44.7521 33.6961 44.6719 33.0181 44.52 32.3675L46.7133 31.1023C47.9431 30.3926 48.3651 28.8201 47.6554 27.59C46.9457 26.3599 45.3734 25.938 44.1432 26.6477L41.9455 27.9155C40.9622 26.9937 39.769 26.2931 38.4456 25.8933V23.3571ZM32.6471 32.5248C32.6235 32.5657 32.599 32.6056 32.5735 32.6447C32.2967 33.1663 32.1399 33.7613 32.1399 34.393C32.1399 35.0246 32.2967 35.6194 32.5734 36.1409C32.5989 36.18 32.6234 36.2201 32.6471 36.2609C32.6695 36.2997 32.6907 36.3391 32.7109 36.3785C33.3697 37.4259 34.5346 38.1233 35.8625 38.1274H35.8862C37.213 38.1237 38.3767 37.4277 39.036 36.3819C39.0569 36.3415 39.0789 36.301 39.1018 36.2609C39.1262 36.2187 39.1515 36.1776 39.1776 36.1375C39.4533 35.6167 39.6093 35.0229 39.6093 34.393C39.6093 33.7627 39.4533 33.169 39.1776 32.6482C39.1512 32.608 39.1262 32.5669 39.1018 32.5248C39.0789 32.4848 39.0569 32.4445 39.0363 32.4039C38.375 31.355 37.2062 30.6582 35.8745 30.6582C34.5415 30.6582 33.3717 31.3566 32.7108 32.4074C32.6907 32.4469 32.6694 32.486 32.6471 32.5248Z" fill="white"/>
</g>
<defs>
<clipPath id="clip0_68_166">
<rect width="48" height="48" fill="white"/>
</clipPath>
</defs>
</svg>
