<svg width="48" height="48" viewBox="0 0 48 48" fill="none" xmlns="http://www.w3.org/2000/svg">
<g id="Graph" clip-path="url(#clip0_68_156)">
<path id="icon" fill-rule="evenodd" clip-rule="evenodd" d="M5.39714 3.07991C5.39714 1.65975 4.24586 0.508484 2.8257 0.508484C1.40554 0.508484 0.254272 1.65975 0.254272 3.07991V44.9197C0.254272 46.3402 1.40554 47.4912 2.8257 47.4912H44.6657C46.0858 47.4912 47.2372 46.3402 47.2372 44.9197C47.2372 43.4996 46.0858 42.3483 44.6657 42.3483H5.39714V3.07991ZM35.0452 8.33572C34.2895 7.79607 33.3475 7.5859 32.4343 7.75328C31.521 7.92066 30.7147 8.4513 30.1996 9.22383L19.6457 25.0548L14.5568 19.9659C13.2178 18.627 11.047 18.627 9.70802 19.9659C8.36909 21.3048 8.36909 23.4757 9.70802 24.8146L17.7542 32.8608C18.4805 33.5871 19.4942 33.9495 20.5164 33.8483C21.5385 33.7471 22.4615 33.1929 23.0313 32.3383L33.941 15.9738L42.324 21.9618C43.8652 23.0624 46.0063 22.7055 47.1069 21.1646C48.2075 19.6238 47.8505 17.4825 46.3097 16.3819L35.0452 8.33572Z" fill="white"/>
</g>
<defs>
<clipPath id="clip0_68_156">
<rect width="48" height="48" fill="white"/>
</clipPath>
</defs>
</svg>
