<svg width="48" height="48" viewBox="0 0 48 48" fill="none" xmlns="http://www.w3.org/2000/svg">
<g id="Magnifying Glass Circle" clip-path="url(#clip0_68_174)">
<path id="icon" fill-rule="evenodd" clip-rule="evenodd" d="M48 24C48 37.2549 37.2549 48 24 48C10.7452 48 0 37.2549 0 24C0 10.7452 10.7452 0 24 0C37.2549 0 48 10.7452 48 24ZM22.2857 15.8571C18.7353 15.8571 15.8571 18.7353 15.8571 22.2857C15.8571 25.8361 18.7353 28.7143 22.2857 28.7143C25.8361 28.7143 28.7143 25.8361 28.7143 22.2857C28.7143 18.7353 25.8361 15.8571 22.2857 15.8571ZM11.5714 22.2857C11.5714 16.3684 16.3684 11.5714 22.2857 11.5714C28.2031 11.5714 33 16.3684 33 22.2857C33 24.4695 32.3467 26.5006 31.2249 28.1944L35.8008 32.7705C36.6377 33.6073 36.6377 34.9642 35.8008 35.8008C34.9642 36.6377 33.6073 36.6377 32.7705 35.8008L28.1944 31.2249C26.5006 32.3467 24.4695 33 22.2857 33C16.3684 33 11.5714 28.2031 11.5714 22.2857Z" fill="white"/>
</g>
<defs>
<clipPath id="clip0_68_174">
<rect width="48" height="48" fill="white"/>
</clipPath>
</defs>
</svg>
