<svg width="120" height="120" viewBox="0 0 120 120" fill="none" xmlns="http://www.w3.org/2000/svg">
<g id="Table">
<path id="Icon" d="M46 12C46 11.4477 45.5523 11 45 11C44.4477 11 44 11.4477 44 12H46ZM44 108C44 108.552 44.4477 109 45 109C45.5523 109 46 108.552 46 108H44ZM30 13H90V11H30V13ZM107 30V90H109V30H107ZM90 107H30V109H90V107ZM13 90V30H11V90H13ZM30 107C20.6112 107 13 99.3888 13 90H11C11 100.493 19.5066 109 30 109V107ZM107 90C107 99.3888 99.3888 107 90 107V109C100.493 109 109 100.493 109 90H107ZM90 13C99.3888 13 107 20.6112 107 30H109C109 19.5066 100.493 11 90 11V13ZM30 11C19.5066 11 11 19.5066 11 30H13C13 20.6112 20.6112 13 30 13V11ZM44 12V108H46V12H44ZM15 46H105V44H15V46Z" fill="#A4A2A3"/>
</g>
</svg>
